<svg width="20" height="14" viewBox="0 0 20 14" fill="none" xmlns="http://www.w3.org/2000/svg">
<g clip-path="url(#clip0)">
<path d="M15.6616 3.45898C15.0193 3.46732 14.385 3.61145 13.7958 3.88294C13.2066 4.15443 12.6744 4.54783 12.2303 5.04012C11.7862 5.5324 11.4391 6.11369 11.2094 6.74997C10.9797 7.38624 10.8719 8.06472 10.8924 8.7457C10.829 9.43557 10.9074 10.1318 11.122 10.7865C11.3366 11.4412 11.6825 12.0388 12.1357 12.5381C12.589 13.0374 13.1389 13.4267 13.7476 13.679C14.3563 13.9313 15.0093 14.0408 15.6616 13.9998C15.6616 13.9998 19.9078 14.2608 19.9078 10.3448H17.7232C17.7232 10.3448 17.7232 11.8133 15.7232 11.8133C15.4247 11.8393 15.1246 11.7949 14.8442 11.6834C14.5638 11.5719 14.3102 11.396 14.1014 11.1684C13.8926 10.9407 13.7339 10.6669 13.6366 10.3665C13.5393 10.0662 13.5058 9.7467 13.5386 9.43101H19.9693C19.9693 9.43101 20.677 3.45898 15.6616 3.45898ZM17.6001 7.60351H13.5078C13.5736 7.0317 13.8299 6.50365 14.2305 6.11468C14.6311 5.7257 15.1496 5.50141 15.6924 5.48229C15.9509 5.48197 16.2067 5.53737 16.4444 5.64512C16.6821 5.75286 16.8967 5.91072 17.0751 6.10909C17.2535 6.30747 17.392 6.54223 17.4823 6.79912C17.5725 7.05601 17.6126 7.32968 17.6001 7.60351Z" fill="black"/>
<path d="M8.06154 6.23356C8.34936 6.19735 8.62752 6.10076 8.8798 5.94942C9.13208 5.79807 9.35344 5.59499 9.53099 5.35201C9.70854 5.10903 9.83872 4.83101 9.91396 4.53414C9.9892 4.23727 10.008 3.92748 9.96923 3.62284C10.0265 3.12395 9.97441 2.61777 9.81694 2.14376C9.65947 1.66975 9.4009 1.24072 9.0614 0.890113C8.72189 0.539509 8.31063 0.276808 7.85966 0.122492C7.4087 -0.0318253 6.93022 -0.0735879 6.46154 0.000459716H0V13.7068H6.46154C6.97614 13.7386 7.49137 13.6567 7.97459 13.4663C8.45781 13.276 8.89849 12.9813 9.26873 12.6009C9.63897 12.2205 9.93069 11.7627 10.1254 11.2564C10.3202 10.7502 10.4137 10.2067 10.4 9.66013C10.4 9.66013 10.5538 6.23356 8.06154 6.23356ZM2.73846 2.41538H6.46154C6.46154 2.41538 7.32308 2.41538 7.32308 3.85128C7.32308 5.28717 6.83077 5.48298 6.24615 5.48298H2.73846V2.41538ZM6.27692 11.2592H2.73846V7.60419H6.46154C6.46154 7.60419 7.75385 7.60419 7.75385 9.46433C7.75385 11.3245 6.8 11.2592 6.27692 11.2592Z" fill="black"/>
<path d="M18.0921 0.816406H12.9844V2.51338H18.0921V0.816406Z" fill="black"/>
</g>
<defs>
<clipPath id="clip0">
<rect width="20" height="14" fill="white"/>
</clipPath>
</defs>
</svg>
