<svg width="163" height="51" viewBox="0 0 163 51" fill="none" xmlns="http://www.w3.org/2000/svg">
<path d="M0.26 13.972C0.26 18.424 3.228 21.28 7.736 21.28C11.152 21.28 14.624 19.404 14.904 15.372H11.292C11.012 17.192 9.64 18.144 7.736 18.144C5.16 18.144 3.872 16.436 3.872 13.972C3.872 11.536 5.16 9.8 7.736 9.8C9.64 9.8 11.012 10.752 11.292 12.572H14.904C14.624 8.54 11.152 6.664 7.736 6.664C3.228 6.664 0.26 9.548 0.26 13.972ZM27.5863 6.664C24.5623 6.664 22.7983 8.568 22.2383 11.088H21.3143L21.9583 8.932V0.42H18.3463V21H21.9583V15.4C21.9583 11.508 23.7503 9.8 26.3823 9.8C28.6223 9.8 29.5463 10.836 29.5463 13.552V21H33.1303V13.02C33.1303 8.848 31.0023 6.664 27.5863 6.664ZM41.7816 5.236C43.2096 5.236 44.1896 4.424 44.1896 3.108C44.1896 1.82 43.2096 0.979999 41.7816 0.979999C40.3256 0.979999 39.4016 1.82 39.4016 3.108C39.4016 4.424 40.3256 5.236 41.7816 5.236ZM36.4336 21H47.8296V17.864H43.8536V8.764C43.8536 7.392 43.1256 6.58 41.6696 6.664L37.1896 6.944V10.08L40.4096 9.884V17.864H36.4336V21ZM50.7059 17.136C50.7059 18.592 51.4059 21.28 55.6619 21.28C59.3859 21.28 60.7859 19.292 61.3179 17.024H62.2699L61.7099 18.62V19.096C61.7099 20.3 62.3819 21 63.6139 21H66.4699V17.864H64.4259V13.104C64.4259 8.82 61.4579 6.664 57.5659 6.664C53.6179 6.664 50.9019 8.96 50.9019 12.264H54.3179C54.3179 10.444 55.6619 9.632 57.5659 9.632C59.6659 9.632 60.7579 10.556 60.8139 12.264L55.9419 12.852C52.1059 13.328 50.7059 14.784 50.7059 17.136ZM54.3179 16.52C54.3179 15.484 55.0739 15.148 56.5859 14.98L60.8139 14.448C60.8139 16.66 59.0499 18.144 56.3059 18.144C55.1859 18.144 54.3179 17.64 54.3179 16.52ZM69.6398 21H73.2518V9.884L80.5038 10.08V6.944L71.8518 6.72C70.4238 6.664 69.6398 7.448 69.6398 8.876V21ZM82.9694 17.136C82.9694 18.592 83.6694 21.28 87.9254 21.28C91.6494 21.28 93.0494 19.292 93.5814 17.024H94.5334L93.9734 18.62V19.096C93.9734 20.3 94.6454 21 95.8774 21H98.7334V17.864H96.6894V13.104C96.6894 8.82 93.7214 6.664 89.8294 6.664C85.8814 6.664 83.1654 8.96 83.1654 12.264H86.5814C86.5814 10.444 87.9254 9.632 89.8294 9.632C91.9294 9.632 93.0214 10.556 93.0774 12.264L88.2054 12.852C84.3694 13.328 82.9694 14.784 82.9694 17.136ZM86.5814 16.52C86.5814 15.484 87.3374 15.148 88.8494 14.98L93.0774 14.448C93.0774 16.66 91.3134 18.144 88.5694 18.144C87.4494 18.144 86.5814 17.64 86.5814 16.52ZM19.0637 50H30.4878V46.864H26.5958V31.38C26.5958 29.896 25.8118 29.112 24.3557 29.196L19.8197 29.42V32.556L22.9838 32.36V46.864H19.0637V50ZM33.3973 46.136C33.3973 47.592 34.0973 50.28 38.3533 50.28C42.0773 50.28 43.4773 48.292 44.0093 46.024H44.9613L44.4013 47.62V48.096C44.4013 49.3 45.0733 50 46.3053 50H49.1613V46.864H47.1173V42.104C47.1173 37.82 44.1493 35.664 40.2573 35.664C36.3093 35.664 33.5933 37.96 33.5933 41.264H37.0093C37.0093 39.444 38.3533 38.632 40.2573 38.632C42.3573 38.632 43.4493 39.556 43.5053 41.264L38.6333 41.852C34.7973 42.328 33.3973 43.784 33.3973 46.136ZM37.0093 45.52C37.0093 44.484 37.7653 44.148 39.2773 43.98L43.5053 43.448C43.5053 45.66 41.7413 47.144 38.9973 47.144C37.8773 47.144 37.0093 46.64 37.0093 45.52ZM60.3673 38.8C62.6072 38.8 63.5313 39.836 63.5313 42.552V50H67.1153V42.02C67.1153 37.848 64.9873 35.664 61.5712 35.664C58.5472 35.664 56.7832 37.568 56.2232 40.088H55.2992L55.9432 37.932V35.944H52.3312V50H55.9432V44.4C55.9432 40.508 57.7352 38.8 60.3673 38.8ZM70.528 42.972C70.528 47.424 73.496 50.28 78.004 50.28C81.42 50.28 84.892 48.404 85.172 44.372H81.56C81.28 46.192 79.908 47.144 78.004 47.144C75.428 47.144 74.14 45.436 74.14 42.972C74.14 40.536 75.428 38.8 78.004 38.8C79.908 38.8 81.28 39.752 81.56 41.572H85.172C84.892 37.54 81.42 35.664 78.004 35.664C73.496 35.664 70.528 38.548 70.528 42.972ZM93.0468 34.236C94.4748 34.236 95.4548 33.424 95.4548 32.108C95.4548 30.82 94.4748 29.98 93.0468 29.98C91.5908 29.98 90.6668 30.82 90.6668 32.108C90.6668 33.424 91.5908 34.236 93.0468 34.236ZM87.6988 50H99.0948V46.864H95.1188V37.764C95.1188 36.392 94.3908 35.58 92.9348 35.664L88.4548 35.944V39.08L91.6748 38.884V46.864H87.6988V50ZM101.315 42.972C101.315 47.564 104.591 50.28 109.043 50.28C113.467 50.28 116.743 47.564 116.743 42.972C116.743 38.38 113.467 35.664 109.043 35.664C104.591 35.664 101.315 38.38 101.315 42.972ZM104.927 42.972C104.927 40.396 106.467 38.8 109.043 38.8C111.619 38.8 113.159 40.396 113.159 42.972C113.159 45.548 111.619 47.144 109.043 47.144C106.467 47.144 104.927 45.548 104.927 42.972ZM125.572 47.144V39.08H130.08V35.944H125.572V31.8L121.96 32.92V35.944H118.712V39.08H121.96V48.096C121.96 49.524 122.716 50.336 124.144 50.28L130.64 50V46.864L125.572 47.144ZM139.762 47.144V39.08H144.27V35.944H139.762V31.8L136.15 32.92V35.944H132.902V39.08H136.15V48.096C136.15 49.524 136.906 50.336 138.334 50.28L144.83 50V46.864L139.762 47.144ZM147.358 42.972C147.358 47.564 150.634 50.28 155.086 50.28C159.51 50.28 162.786 47.564 162.786 42.972C162.786 38.38 159.51 35.664 155.086 35.664C150.634 35.664 147.358 38.38 147.358 42.972ZM150.97 42.972C150.97 40.396 152.51 38.8 155.086 38.8C157.662 38.8 159.202 40.396 159.202 42.972C159.202 45.548 157.662 47.144 155.086 47.144C152.51 47.144 150.97 45.548 150.97 42.972Z" fill="black"/>
</svg>
