<svg id="Livello_1" data-name="Livello 1" xmlns="http://www.w3.org/2000/svg" viewBox="0 0 232.70728 76.58257"><text transform="translate(0 57.61701)" style="font-size:66.07964324951172px;fill:#1d1d1b;font-family:JLSSpaceGothic-CNC, JLS Space GothicC"><tspan xml:space="preserve">ELB     </tspan><tspan x="148.80908" y="0" style="letter-spacing:-0.07200118320909907em"> </tspan><tspan x="157.26709" y="0">WS</tspan></text><path d="M106.09524,55.25085a36.6504,36.6504,0,1,1,36.65007,36.76106A36.686,36.686,0,0,1,106.09524,55.25085Zm68.19168,0a31.65264,31.65264,0,0,0-63.30488,0,31.65263,31.65263,0,1,0,63.30488,0Zm-61.19477,0c0-16.10394,13.43823-29.2092,29.65316-29.2092a29.43118,29.43118,0,1,1,0,58.86236A29.79065,29.79065,0,0,1,113.09215,55.25085Zm47.31193,12.43867,5.55307-8.99571H119.31149l5.77537,8.99571A78.98284,78.98284,0,0,0,160.40408,67.68952ZM136.526,46.47711l-4.99779-11.43943c-.55528-1.33253-6.88561,2.33241-5.997,3.443L133.083,48.032C133.63829,48.69822,136.85926,47.14338,136.526,46.47711Zm22.76756,22.65625a63.54656,63.54656,0,0,1-33.20711,0c2.88736,4.77581,8.44043,11.10614,16.65889,11.10614C150.85277,80.2395,156.51715,73.90917,159.29353,69.13336Zm-12.55-13.88251-3.88693-9.329-3.99824,9.329ZM159.9598,38.48064c.88856-1.11055-5.44176-4.77549-5.997-3.443L148.965,46.47711c-.33329.66627,2.88737,2.22111,3.44265,1.55484Z" transform="translate(-22.87646 -18.60077)" style="fill:#1d1d1b"/></svg>